# xmcd
#
# Track frame offsets:
#	183
#	13185
#	26778
#	40015
#	53790
#	66438
#	78253
#	91458
#	105233
#	119653
#	130350
#	142763
#	155853
#	167845
#	177928
#	190048
#	202253
#	214590
#	226900
#	239363
#	253760
#	266040
#	279898
#
# Disc length: 3910
#
# Revision: 1
# Processed by: cddbd v1.5.1PL0 Copyright (c) Steve Scherf et al.
# Submitted via: ExactAudioCopy v0.90b4
# Normalized: r0:DSETVAR1
#
DISCID=4b0f4417
DTITLE=Various Artist - Vintage Blues
DYEAR=1988
DGENRE=Blues
TTITLE0=Albert King - Be On Your Merry Way (1953)
TTITLE1=Albert King - Bad Luck Blues (1953)
TTITLE2=Albert King - Murder (1963)
TTITLE3=Albert King - Searchin' For a Woman (1961)
TTITLE4=Albert King - California Blues (1961)
TTITLE5=Albert King - Wild Woman (1961)
TTITLE6=Albert King - Won't Be Hanin' Around (1961)
TTITLE7=Albert King - Howlin' For My Darling (1960)
TTITLE8=Otis Rush - So Many Roads, So Many Trains (1960)
TTITLE9=Otis Rush - I'm Satisfied (1960)
TTITLE10=Otis Rush - So Close (1960)
TTITLE11=Otis Rush - All Your Love (I Miss Loving) (1960)
TTITLE12=Otis Rush - You Know My Love (1960)
TTITLE13=Otis Rush - I Can't Stop Baby (1960)
TTITLE14=Otis Spann - It Must Have Been The Devil (1954)
TTITLE15=Otis Spann - Five Spot (1954)
TTITLE16=Otis Spann - I'm Leving You (1956)
TTITLE17=Otis Spann - I'm in Love With You Baby (1956)
TTITLE18=John Brim - Ice Cream Man (1953)
TTITLE19=John Brim - Rattlesnake (1953)
TTITLE20=John Brim - Be Careful (1956)
TTITLE21=John Brim - Tough Times (1953)
TTITLE22=John Brim - You Got Me (1956)
EXTD=
EXTT0=
EXTT1=
EXTT2=
EXTT3=
EXTT4=
EXTT5=
EXTT6=
EXTT7=
EXTT8=
EXTT9=
EXTT10=
EXTT11=
EXTT12=
EXTT13=
EXTT14=
EXTT15=
EXTT16=
EXTT17=
EXTT18=
EXTT19=
EXTT20=
EXTT21=
EXTT22=
PLAYORDER=
